@startuml

skinparam sequenceMessageAlign center
title TO REGISTER NEW PROJECT
legend top
US010 - As Manager, I want to register/create a new project.
end legend

class RegisterProjectController {
- company
+ registerProject(projectDto, email)
}


class Company {
- projectContainer
- accountContainer
+ validateProfileRequired(email, profileNameRequired)
+ registerProject(projectDto)
}
class AccountContainer {
- Accounts
+ validateProfileRequired( email, profileNameRequired)
}

class Account {
+ isProfileRequired(profileNameRequired)
- profile
}

class Profile {
-profileName
}

class ProjectContainer {
- projects
+ registerProject(projectCreationDto, projectTypologyContainer, customerContainer, businessSectorContainer)
}

class ProjectCreationMapper{
+ getProjectFromDto(projectCreationDto, projectTypologyContainer, customerContainer, businessSectorContainer)
}
class ProjectCreationDto{
+ code
+ name
+ status
+ customer
+ projectTypology
+ businessSector
}

class Project{
- code
- name
- status
- customer
- projectTypology
- businessSector
+Project( projectCode, name, customer, projectTypology, businessSector)
}

RegisterProjectController "1"-->"1" Company: has
Company "1"-->"1" ProjectContainer: has
Company "1"-->"1" AccountContainer: has
AccountContainer "1"-->"*" Account: contains
Account "1"-->"1" Profile: has
ProjectContainer "1" -left-> "*" Project: contains
ProjectContainer "1" ..> "1" ProjectCreationMapper
ProjectCreationMapper "1"..>"*" Project
ProjectCreationMapper "1"..>"*" ProjectCreationDto

@enduml
