@startuml

skinparam sequenceMessageAlign center
title TO REGISTER NEW ACCOUNT
legend top
US002 - As Administrator, I want to register a user.
end legend

class "RegisterAccountController" {
-company
+registerAccount(name, email, phoneNumber, photo)
}

class "Company" {
-accountContainer
+validateProfileRequired(email, profileNameRequired)
+registerAccount(name, email, phoneNumber, photo)
}

class "AccountContainer"{
-accounts
+validateProfileRequired(email, profileNameRequired)
+addAccount(name, email, phoneNumber, photo)
}

class "Account" {
-name
-email
-phoneNumber
-photo
+equals(Object toCompare)
+hashCode()
+ isProfileRequired(profileNameRequired)
}

class "Profile"{
-profileName
+isProfileRequired(profileNameRequired)
+equals(Object toCompare)
+hashCode()
}

"RegisterAccountController" "1" --> "1" "Company": has
"Company" "1"-->"1" "AccountContainer": has
"AccountContainer" "1"-->"*" "Account": contains
"Account" "*"--> "1""Profile": contains
@enduml