@startuml

legend top
US005 - As Administrator, I want to inactivate a user account.
end legend
skinparam sequenceMessageAlign center
title TO INACTIVATE USER ACCOUNT

"ChangeStatusController"  ..> "Company"
"ChangeStatusController" ..> "AccountContainer"
"ChangeStatusController" ..> "Account"
"Company" "1"-->"1" "AccountContainer": has
"AccountContainer" "1"-->"*" "Account": contains

class "ChangeStatusController" {
-company
+changeStatus(email, status)
}

class "Company" {
-accountContainer
+changeStatus(email, status)
}

class "AccountContainer" {
-accounts
+getAccountByEmail(email)
}

class "Account" {
-status
+setStatus(status)
}

@enduml