@startuml
'https://plantuml.com/class-diagram
skinparam sequenceMessageAlign center
title TO CREATE NEW SPRINT
legend top
US019 - As Project Manager, I want to create a Sprint.
end legend

class CreateSprintController {
- company
+ createSprint(projectDto,sprintCreationDto)
}
CreateSprintController "1"-->"1" Company

class Company {
-projectContainer
+createSprint(projectDto,sprintCreationDto)
}
Company "1"-->"1" ProjectContainer

class ProjectContainer {
-projects
+ createSprint(sprintCreationDto,projectDto)
-getProjectByCode(projectCode)
}
ProjectContainer "1"-->"*" Project

class Project {
-factorySprint
-sprints
+createSprint(sprintCreationDto)
+isPeriodValid(sprint)
+addSprint(sprint)
}
Project "1"-->"1" FactorySprint

interface FactorySprint {
+createSprint(startDate, sprintDuration)
}

class Sprint {
-sprintNumber
-period
-sprintBacklog
-iFactorySprintBacklog
+createSprint(startDate, sprintDuration, sprintNumber,
iFactoryPeriod,iFactorySprintBacklog)
+setPeriod(iFactoryPeriod,startDate,sprintDuration)
+getStartDate()
+getEndDate()
}

Sprint -> FactoryPeriod
FactorySprint "1"..> "*"Sprint

interface FactoryPeriod {
+createSprint(startDate, sprintDuration)
}

FactoryPeriod ..> Period

class Period {
-startDate
-endDate
-calculateEndDate( startDate, sprintDuration)
+Period(startDate, sprintDuration)
+getStartDate()
+getEndDate()
}

class "SprintCreationDto"{
+startDate
+sprintDuration
+sprintNumber
+getSprintNumber()
+getSprintDuration()
+getStartDate()
}


class "ProjectDto"{
+projectCode
+getProjectByCode()
}
"ProjectDto"<.. "ProjectContainer"

"ProjectContainer"..>"SprintCreationDto"
"Project"..> "SprintCreationDto"


@enduml